<?xml version="1.0" encoding="utf-8"?>
<!-- Generator: Adobe Illustrator 25.2.0, SVG Export Plug-In . SVG Version: 6.00 Build 0)  -->
<svg version="1.1" id="Layer_1" xmlns="http://www.w3.org/2000/svg" xmlns:xlink="http://www.w3.org/1999/xlink" x="0px" y="0px"
	 viewBox="0 0 50 50" style="enable-background:new 0 0 50 50;" xml:space="preserve">
<style type="text/css">
	.st0{fill:#FFFFFF;}
</style>
<path class="st0" d="M45.4,28.8H4.3c-1.3,0-2.3-1-2.3-2.3V11.3C2,10,3,9,4.3,9h41.1c1.3,0,2.3,1,2.3,2.3v15.2
	C47.7,27.8,46.7,28.8,45.4,28.8z M4.3,10.5c-0.4,0-0.8,0.3-0.8,0.8v15.2c0,0.4,0.3,0.8,0.8,0.8h41.1c0.4,0,0.8-0.3,0.8-0.8V11.3
	c0-0.4-0.3-0.8-0.8-0.8H4.3z"/>
<path class="st0" d="M27.9,15.9h-6.1c-0.4,0-0.8-0.3-0.8-0.8s0.3-0.8,0.8-0.8h6.1c0.4,0,0.8,0.3,0.8,0.8S28.3,15.9,27.9,15.9z"/>
<path class="st0" d="M43.9,25.8H5.8C5.4,25.8,5,25.4,5,25c0-0.4,0.3-0.8,0.8-0.8h38.1c0.4,0,0.8,0.3,0.8,0.8
	C44.7,25.4,44.3,25.8,43.9,25.8z"/>
<path class="st0" d="M43.9,22.7H5.8C5.4,22.7,5,22.4,5,22c0-0.4,0.3-0.8,0.8-0.8h38.1c0.4,0,0.8,0.3,0.8,0.8
	C44.7,22.4,44.3,22.7,43.9,22.7z"/>
<path class="st0" d="M24.9,39.5c-0.3,0-0.5-0.1-0.7-0.4c-0.2-0.4,0-0.8,0.3-1c0.7-0.4,1.1-0.8,1.1-1.2c0-0.4-0.4-0.9-1.1-1.2
	c-1.2-0.6-1.9-1.6-1.9-2.6c0-1,0.7-1.9,1.9-2.6c0.4-0.2,0.8,0,1,0.3c0.2,0.4,0,0.8-0.3,1c-0.7,0.4-1.1,0.8-1.1,1.2s0.4,0.9,1.1,1.2
	c1.2,0.6,1.9,1.6,1.9,2.6c0,1-0.7,1.9-1.9,2.6C25.1,39.4,25,39.5,24.9,39.5z"/>
<path class="st0" d="M16.5,41c-0.3,0-0.5-0.1-0.7-0.4c-0.2-0.4,0-0.8,0.3-1c0.7-0.4,1.1-0.8,1.1-1.2c0-0.4-0.4-0.9-1.1-1.2
	c-1.2-0.6-1.9-1.6-1.9-2.6c0-1,0.7-1.9,1.9-2.6c0.4-0.2,0.8,0,1,0.3c0.2,0.4,0,0.8-0.3,1c-0.7,0.4-1.1,0.8-1.1,1.2
	c0,0.4,0.4,0.9,1.1,1.2c1.2,0.6,1.9,1.6,1.9,2.6c0,1-0.7,1.9-1.9,2.6C16.7,41,16.6,41,16.5,41z"/>
<path class="st0" d="M33.2,41c-0.3,0-0.5-0.1-0.7-0.4c-0.2-0.4,0-0.8,0.3-1c0.7-0.4,1.1-0.8,1.1-1.2c0-0.4-0.4-0.9-1.1-1.2
	c-1.2-0.6-1.9-1.6-1.9-2.6c0-1,0.7-1.9,1.9-2.6c0.4-0.2,0.8,0,1,0.3c0.2,0.4,0,0.8-0.3,1c-0.7,0.4-1.1,0.8-1.1,1.2
	c0,0.4,0.4,0.9,1.1,1.2c1.2,0.6,1.9,1.6,1.9,2.6c0,1-0.7,1.9-1.9,2.6C33.5,41,33.4,41,33.2,41z"/>
</svg>
