<?xml version="1.0" encoding="utf-8"?>
<!-- Generator: Adobe Illustrator 25.2.0, SVG Export Plug-In . SVG Version: 6.00 Build 0)  -->
<svg version="1.1" id="Layer_1" xmlns="http://www.w3.org/2000/svg" xmlns:xlink="http://www.w3.org/1999/xlink" x="0px" y="0px"
	 viewBox="0 0 70 70" style="enable-background:new 0 0 70 70;" xml:space="preserve">
<style type="text/css">
	.st0{fill:#FFFFFF;stroke:#FFFFFF;stroke-width:0.3;}
</style>
<path class="st0" d="M47,6H23c-1.7,0-3,1.3-3,3v52c0,1.7,1.3,3,3,3h24c1.7,0,3-1.3,3-3V9C50,7.3,48.7,6,47,6z M23,8h24
	c0.6,0,1,0.4,1,1v20H22V9C22,8.4,22.4,8,23,8z M47,62H23c-0.6,0-1-0.4-1-1V31h26v30C48,61.6,47.6,62,47,62z"/>
<path class="st0" d="M26,15h-2v8h2V15z"/>
<path class="st0" d="M26,34h-2v13h2V34z"/>
</svg>
