<?xml version="1.0" encoding="utf-8"?>
<!-- Generator: Adobe Illustrator 25.2.0, SVG Export Plug-In . SVG Version: 6.00 Build 0)  -->
<svg version="1.1" id="Layer_1" xmlns="http://www.w3.org/2000/svg" xmlns:xlink="http://www.w3.org/1999/xlink" x="0px" y="0px"
	 viewBox="0 0 70 70" style="enable-background:new 0 0 70 70;" xml:space="preserve">
<style type="text/css">
	.st0{fill:#FFFFFF;}
</style>
<path class="st0" d="M35,24.1c-3.3,0-6.6,1.1-9.3,3c-2.7,2-4.7,4.7-5.7,7.9c-0.9,0.1-1.7,0.5-2.3,1.2c-0.6,0.7-0.9,1.5-0.9,2.4v2.4
	c0,0.9,0.3,1.8,0.9,2.4c0.6,0.7,1.4,1.1,2.3,1.2c0.9,2.8,2.5,5.2,4.7,7.1c2.2,1.9,4.9,3.1,7.8,3.6c2.9,0.5,5.8,0.1,8.5-1
	c2.7-1.1,5-2.9,6.7-5.3c1.7-2.3,2.7-5.1,3-8c0.2-2.9-0.3-5.8-1.7-8.4c-1.3-2.6-3.3-4.8-5.8-6.3C40.7,24.9,37.9,24.1,35,24.1z
	 M19.3,41.1v-2.4c0-0.3,0.1-0.6,0.4-0.9c0.2-0.2,0.5-0.4,0.9-0.4h3.9c-0.4,1.6-0.4,3.2,0,4.8h-3.9c-0.3,0-0.6-0.1-0.9-0.4
	C19.4,41.7,19.3,41.4,19.3,41.1z M26.5,39.8c0-1.7,0.5-3.3,1.4-4.7c0.9-1.4,2.3-2.5,3.8-3.1c1.5-0.6,3.3-0.8,4.9-0.5
	c1.6,0.3,3.2,1.1,4.3,2.3c1.2,1.2,2,2.7,2.3,4.3c0.3,1.6,0.2,3.3-0.5,4.9c-0.6,1.5-1.7,2.9-3.1,3.8c-1.4,0.9-3,1.4-4.7,1.4
	c-2.2,0-4.4-0.9-6-2.5C27.4,44.2,26.5,42.1,26.5,39.8z M35,53.2c-2.7,0-5.3-0.8-7.5-2.3c-2.2-1.5-3.9-3.7-4.9-6.2h2.7
	c5.1,10.3,20.6,6.5,20.6-4.8c0-11.4-15.5-15.2-20.6-4.8h-2.7c0.9-2.3,2.4-4.2,4.3-5.7c1.9-1.5,4.2-2.4,6.6-2.7
	c2.4-0.3,4.8,0.1,7,1.1c2.2,1,4.1,2.6,5.5,4.6c1.4,2,2.2,4.3,2.3,6.8c0.1,2.4-0.4,4.8-1.5,7c-1.1,2.1-2.8,3.9-4.9,5.2
	S37.4,53.2,35,53.2z"/>
<path class="st0" d="M35,13.2c0.3,0,0.6-0.1,0.9-0.4c0.2-0.2,0.4-0.5,0.4-0.9c0-0.3-0.1-0.6-0.4-0.9c-0.2-0.2-0.5-0.4-0.9-0.4
	c-0.3,0-0.6,0.1-0.9,0.4c-0.2,0.2-0.4,0.5-0.4,0.9c0,0.3,0.1,0.6,0.4,0.9C34.4,13.1,34.7,13.2,35,13.2z"/>
<path class="st0" d="M39.8,13.2c0.3,0,0.6-0.1,0.9-0.4c0.2-0.2,0.4-0.5,0.4-0.9c0-0.3-0.1-0.6-0.4-0.9c-0.2-0.2-0.5-0.4-0.9-0.4
	c-0.3,0-0.6,0.1-0.9,0.4c-0.2,0.2-0.4,0.5-0.4,0.9c0,0.3,0.1,0.6,0.4,0.9C39.2,13.1,39.5,13.2,39.8,13.2z"/>
<path class="st0" d="M31.6,41.3c-0.2,0.2-0.4,0.5-0.4,0.9c0,0.3,0.1,0.6,0.4,0.9c0.2,0.2,0.5,0.4,0.9,0.4c0.3,0,0.6-0.1,0.9-0.4
	c0.5-0.5,1.1-0.7,1.7-0.7c0.6,0,1.3,0.3,1.7,0.7c0.2,0.2,0.5,0.4,0.9,0.4c0.3,0,0.6-0.1,0.9-0.4c0.2-0.2,0.4-0.5,0.4-0.9
	c0-0.3-0.1-0.6-0.4-0.9c-0.9-0.9-2.1-1.4-3.4-1.4C33.7,39.9,32.5,40.4,31.6,41.3z"/>
<path class="st0" d="M40.1,39.6c0.2,0.2,0.5,0.4,0.9,0.4c0.3,0,0.6-0.1,0.9-0.4c0.2-0.2,0.4-0.5,0.4-0.9c0-0.3-0.1-0.6-0.4-0.9
	c-0.9-0.9-2-1.6-3.1-2.1C37.5,35.2,36.3,35,35,35c-1.3,0-2.5,0.3-3.7,0.7c-1.2,0.5-2.2,1.2-3.1,2.1c-0.2,0.2-0.4,0.5-0.4,0.9
	c0,0.3,0.1,0.6,0.4,0.9c0.2,0.2,0.5,0.4,0.9,0.4c0.3,0,0.6-0.1,0.9-0.4c1.4-1.4,3.2-2.1,5.1-2.1C36.9,37.4,38.8,38.2,40.1,39.6z"/>
<path class="st0" d="M35,44.7c-0.3,0-0.6,0.1-0.9,0.4c-0.2,0.2-0.4,0.5-0.4,0.9c0,0.3,0.1,0.6,0.4,0.9c0.2,0.2,0.5,0.4,0.9,0.4
	c0.3,0,0.6-0.1,0.9-0.4c0.2-0.2,0.4-0.5,0.4-0.9c0-0.3-0.1-0.6-0.4-0.9C35.6,44.8,35.3,44.7,35,44.7z"/>
<path class="st0" d="M22.9,10.8h-4.8c-0.3,0-0.6,0.1-0.9,0.4c-0.2,0.2-0.4,0.5-0.4,0.9c0,0.3,0.1,0.6,0.4,0.9
	c0.2,0.2,0.5,0.4,0.9,0.4h4.8c0.3,0,0.6-0.1,0.9-0.4c0.2-0.2,0.4-0.5,0.4-0.9c0-0.3-0.1-0.6-0.4-0.9C23.5,10.9,23.2,10.8,22.9,10.8z
	"/>
<path class="st0" d="M53.2,5.9H16.8c-1.3,0-2.5,0.5-3.4,1.4C12.5,8.3,12,9.5,12,10.8v52.1c0,0.3,0.1,0.6,0.4,0.9
	c0.2,0.2,0.5,0.4,0.9,0.4h43.6c0.3,0,0.6-0.1,0.9-0.4c0.2-0.2,0.4-0.5,0.4-0.9V10.8c0-1.3-0.5-2.5-1.4-3.4
	C55.7,6.5,54.4,5.9,53.2,5.9L53.2,5.9z M55.6,10.8v4.8H28.9V8.4h24.2c0.6,0,1.3,0.3,1.7,0.7C55.3,9.5,55.6,10.1,55.6,10.8z
	 M14.4,10.8c0-0.6,0.3-1.3,0.7-1.7c0.5-0.5,1.1-0.7,1.7-0.7h9.7v7.3H14.4V10.8z M14.4,61.6V18.1h41.2v43.6H14.4z"/>
</svg>
